<svg xmlns="http://www.w3.org/2000/svg" version="1.1" xmlns:xlink="http://www.w3.org/1999/xlink" xmlns:svgjs="http://svgjs.dev/svgjs" width="1000" height="1000" viewBox="0 0 1000 1000"><rect width="1000" height="1000" fill="#000000"></rect><g transform="matrix(0.7,0,0,0.7,150,150.0005399457715)"><svg viewBox="0 0 280 280" data-background-color="#ffffff" preserveAspectRatio="xMidYMid meet" height="1000" width="1000" xmlns="http://www.w3.org/2000/svg" xmlns:xlink="http://www.w3.org/1999/xlink"><g id="tight-bounds" transform="matrix(1,0,0,1,0,-0.00021597830860287104)"><svg viewBox="0 0 280 280" height="280" width="280"><g><svg viewBox="0 0 280 280" height="280" width="280"><g><svg viewBox="0 0 280 280" height="280" width="280"><g id="textblocktransform"><svg viewBox="0 0 280 280" height="280" width="280" id="textblock"><g><svg viewBox="0 0 280 280" height="280" width="280"><g transform="matrix(1,0,0,1,74.00336708925556,74.00336708925556)"><svg viewBox="0 0 131.99326582148888 131.99326582148888" height="131.99326582148888" width="131.99326582148888"><g><circle r="66" cx="65.99663291074444" cy="65.99663291074444" fill="#ffffff" data-fill-palette-color="accent"></circle></g></svg></g><path d="M15.21 194.139l-1.106-2.913 20.286-17.359c0.459-0.38 0.783-0.78 0.972-1.2 0.182-0.417 0.255-0.917 0.219-1.499v0l-0.044-1.069 0.391-0.149 4.31 11.355-0.391 0.148-0.82-1.094c-0.39-0.541-0.793-0.771-1.21-0.691-0.421 0.089-0.884 0.336-1.39 0.741v0l-15.09 12.394 19.568-0.709c0.688-0.02 1.225-0.11 1.611-0.271 0.392-0.163 0.552-0.575 0.479-1.236v0l-0.113-1.139 0.391-0.149 2.095 5.519-0.391 0.149-0.719-0.941c-0.319-0.447-0.683-0.713-1.092-0.8-0.409-0.086-0.912-0.122-1.51-0.108v0zM23.73 211.922l-3.16-4.88 0.351-0.227 0.891 0.68c0.492 0.345 0.96 0.56 1.402 0.646 0.443 0.085 0.964 0.048 1.565-0.112v0l25.638-6.251 1.949 3.009-16.408 20.814c-0.395 0.525-0.652 0.996-0.77 1.412-0.121 0.411-0.116 0.925 0.015 1.544v0l0.134 0.518-0.351 0.227-5.823-8.991 0.351-0.227 0.53 0.416c0.501 0.371 0.961 0.501 1.379 0.388 0.408-0.114 0.802-0.397 1.182-0.848v0l4.02-4.964-5.087-7.855-6.087 1.535c-0.632 0.172-1.081 0.388-1.348 0.647-0.27 0.254-0.34 0.69-0.208 1.309v0l0.186 0.983zM45.888 203.704l-13.486 3.313 4.789 7.395zM47.114 242.688v0c-2.04-2.014-3.418-4.213-4.133-6.598-0.71-2.379-0.725-4.782-0.046-7.208 0.684-2.431 2.081-4.716 4.193-6.855v0c2.051-2.078 4.279-3.475 6.682-4.189 2.398-0.71 4.841-0.695 7.328 0.044 2.487 0.74 4.891 2.254 7.21 4.543v0c1.063 1.049 1.931 2.144 2.604 3.285 0.674 1.131 1.193 2.334 1.558 3.608v0l-4.027 4.32-0.297-0.294 1.398-4.788c0.234-0.757 0.35-1.351 0.347-1.784-0.003-0.441-0.116-0.889-0.339-1.342v0c-0.223-0.416-0.444-0.783-0.662-1.101-0.218-0.318-0.547-0.693-0.986-1.127v0c-1.242-1.226-2.664-1.977-4.266-2.253-1.602-0.276-3.374 0.05-5.315 0.977-1.942 0.928-4.066 2.56-6.375 4.899v0c-2.289 2.319-3.911 4.453-4.865 6.402-0.954 1.94-1.311 3.69-1.071 5.251 0.235 1.557 0.943 2.918 2.124 4.083v0c0.179 0.177 0.371 0.333 0.573 0.468 0.198 0.14 0.398 0.267 0.601 0.384v0c0.439 0.321 0.845 0.41 1.219 0.266 0.379-0.139 0.748-0.39 1.108-0.753v0l5.861-5.937c0.769-0.779 0.841-1.655 0.215-2.627v0l-1.025-1.725 0.301-0.305 8.466 8.358-0.301 0.304-0.544-0.299c-0.994-0.515-1.866-0.392-2.616 0.369v0l-6.427 6.511c-1.613-0.445-3.102-1.043-4.468-1.795-1.366-0.761-2.708-1.792-4.025-3.092zM67.295 258.51l-8.828-6.294 0.243-0.34 0.886 0.216c0.575 0.165 1.034 0.162 1.376-0.01 0.348-0.168 0.684-0.479 1.007-0.932v0l12.778-17.922c0.328-0.459 0.517-0.874 0.57-1.244 0.061-0.372-0.091-0.81-0.456-1.316v0l-0.493-0.766 0.243-0.341 8.827 6.294-0.243 0.34-0.885-0.215c-0.575-0.165-1.034-0.162-1.376 0.009-0.344 0.162-0.68 0.473-1.007 0.932v0l-12.779 17.922c-0.324 0.454-0.504 0.867-0.541 1.24-0.043 0.369 0.1 0.809 0.428 1.32v0l0.492 0.767zM75.04 262.524l-5.22-2.561 0.184-0.375 1.114 0.125c0.6 0.043 1.111-0.013 1.535-0.168 0.423-0.155 0.851-0.455 1.284-0.9v0l18.777-18.543 3.218 1.579-3.372 26.288c-0.069 0.654-0.047 1.189 0.066 1.607 0.107 0.415 0.376 0.853 0.807 1.316v0l0.381 0.376-0.184 0.375-9.617-4.717 0.184-0.376 0.669 0.084c0.621 0.061 1.081-0.065 1.381-0.375 0.292-0.308 0.484-0.753 0.578-1.336v0l0.896-6.324-8.401-4.122-4.432 4.446c-0.454 0.472-0.728 0.889-0.823 1.248-0.101 0.357 0.064 0.767 0.494 1.23v0l0.665 0.747zM89.819 244.082l-9.863 9.776 7.91 3.88zM125.18 278.817l-13.085-2.264 0.071-0.412 1.77-0.128c1.181-0.052 1.869-0.643 2.065-1.774v0l4.097-23.68-3.532-0.611c-1.027-0.178-1.809-0.037-2.346 0.423-0.532 0.467-1.128 1.128-1.788 1.984v0l-2.003 2.644-0.412-0.072 1.377-6.732 23.964 4.146-1.004 6.797-0.412-0.071-0.989-3.162c-0.308-1.023-0.637-1.845-0.988-2.464-0.352-0.613-1.041-1.009-2.068-1.187v0l-3.531-0.61-4.097 23.679c-0.196 1.131 0.254 1.92 1.349 2.365v0l1.634 0.717zM147.987 279.985v0c-1.717 0.08-3.382-0.151-4.995-0.694-1.613-0.543-3.075-1.394-4.385-2.556-1.304-1.168-2.363-2.647-3.177-4.436-0.814-1.789-1.279-3.907-1.393-6.353v0c-0.113-2.413 0.153-4.548 0.797-6.405 0.644-1.857 1.567-3.428 2.77-4.714 1.209-1.279 2.591-2.27 4.147-2.974 1.562-0.704 3.184-1.095 4.868-1.174v0c1.71-0.08 3.372 0.145 4.984 0.674 1.619 0.529 3.081 1.374 4.384 2.536 1.31 1.161 2.373 2.646 3.188 4.455 0.815 1.802 1.279 3.923 1.393 6.363v0c0.111 2.387-0.154 4.518-0.797 6.396-0.643 1.87-1.563 3.445-2.759 4.723-1.189 1.285-2.564 2.279-4.127 2.983-1.555 0.704-3.188 1.096-4.898 1.176zM147.946 279.099v0c1.545-0.072 2.775-0.545 3.691-1.418 0.916-0.873 1.543-2.321 1.88-4.343 0.344-2.029 0.434-4.801 0.269-8.314v0c-0.165-3.534-0.513-6.294-1.044-8.283-0.525-1.989-1.284-3.375-2.277-4.159-0.993-0.784-2.262-1.14-3.807-1.068v0c-1.518 0.071-2.735 0.543-3.651 1.416-0.916 0.873-1.546 2.324-1.89 4.354-0.337 2.029-0.423 4.81-0.258 8.344v0c0.164 3.514 0.508 6.265 1.033 8.253 0.531 1.982 1.293 3.365 2.287 4.149 0.993 0.784 2.249 1.141 3.767 1.069zM178.188 274.971v0c-2.061 0.567-3.985 0.703-5.772 0.41-1.788-0.293-3.338-1.113-4.651-2.458-1.319-1.344-2.337-3.319-3.054-5.923v0l-3.856-14.024c-0.282-1.024-0.995-1.554-2.14-1.59v0l-0.962-0.004-0.11-0.403 11.259-3.096 0.111 0.403-1.091 0.651c-0.938 0.519-1.254 1.336-0.948 2.449v0l4.126 15.003c0.691 2.515 1.731 4.232 3.119 5.151 1.393 0.911 3.078 1.095 5.056 0.551v0c2.061-0.567 3.517-1.652 4.37-3.256 0.859-1.606 0.969-3.574 0.328-5.903v0l-4.101-14.916c-0.15-0.544-0.371-0.999-0.665-1.366-0.295-0.373-0.73-0.553-1.304-0.54v0l-1.086 0.03-0.111-0.403 5.692-1.565 0.111 0.403-1.025 0.592c-0.482 0.25-0.748 0.598-0.797 1.045-0.054 0.455-0.006 0.955 0.144 1.499v0l4.091 14.878c0.544 1.977 0.625 3.813 0.244 5.508-0.376 1.686-1.161 3.124-2.355 4.313-1.188 1.187-2.729 2.041-4.623 2.561zM202.887 264.354l-9.55 5.026-0.195-0.37 0.645-0.677c0.406-0.439 0.609-0.838 0.608-1.197 0.001-0.368-0.136-0.814-0.411-1.337v0l-10.269-19.513c-0.263-0.499-0.539-0.853-0.828-1.06-0.287-0.217-0.711-0.289-1.274-0.219v0l-1.04 0.12-0.194-0.37 10.668-5.615c2.937-1.545 5.479-2.179 7.629-1.899 2.152 0.285 3.745 1.408 4.776 3.369v0c0.578 1.098 0.743 2.41 0.496 3.935-0.247 1.525-1.094 3.051-2.54 4.577v0l10.599 7.573c0.446 0.305 0.88 0.512 1.305 0.618 0.427 0.113 0.928 0.145 1.502 0.098v0l0.582-0.07 0.176 0.335-6.677 3.514-11.709-8.845-2.537 1.335 4.85 9.215c0.247 0.47 0.526 0.814 0.836 1.034 0.304 0.222 0.735 0.285 1.291 0.186v0l1.066-0.133zM188.27 241.56l5.985 11.373 1.797-0.945c1.791-0.943 2.831-2.101 3.121-3.476 0.295-1.378-0.055-3.012-1.051-4.903v0c-1.008-1.915-2.13-3.143-3.367-3.684-1.234-0.535-2.735-0.338-4.503 0.592v0zM234.152 242.866l-15.953 12.855-0.262-0.326 0.477-0.819c0.318-0.546 0.435-0.994 0.35-1.343-0.08-0.353-0.295-0.747-0.645-1.181v0l-13.811-17.139c-0.354-0.439-0.702-0.734-1.044-0.884-0.342-0.159-0.794-0.14-1.359 0.06v0l-0.902 0.292-0.263-0.326 8.372-6.746 0.262 0.326-0.376 0.738c-0.294 0.492-0.405 0.936-0.335 1.331 0.066 0.399 0.273 0.815 0.624 1.249v0l15.078 18.712 5.054-4.073c0.811-0.654 1.25-1.331 1.316-2.032 0.066-0.701-0.025-1.565-0.273-2.592v0l-0.945-3.79 0.326-0.262zM244.151 232.321l-7.396 7.927-0.306-0.285 0.33-0.85c0.239-0.548 0.296-1.003 0.171-1.365-0.121-0.367-0.385-0.74-0.793-1.121v0l-16.093-15.016c-0.412-0.385-0.799-0.627-1.159-0.727-0.361-0.11-0.815-0.016-1.364 0.279v0l-0.825 0.388-0.305-0.285 7.395-7.927 0.306 0.286-0.33 0.849c-0.239 0.548-0.296 1.003-0.171 1.366 0.116 0.362 0.38 0.736 0.793 1.12v0l16.093 15.016c0.408 0.38 0.794 0.613 1.158 0.699 0.36 0.091 0.815 0.007 1.365-0.251v0l0.825-0.388zM252.01 220.936l-5.78 8.614-0.347-0.233 0.212-0.924c0.2-0.953-0.144-1.727-1.031-2.322v0l-18.278-12.264c-0.931-0.625-1.778-0.65-2.539-0.074v0l-0.775 0.547-0.347-0.233 6.201-9.242c1.66-2.474 3.55-4.296 5.668-5.464 2.118-1.168 4.363-1.66 6.733-1.476 2.365 0.18 4.749 1.076 7.151 2.688v0c2.452 1.645 4.188 3.573 5.207 5.784 1.024 2.214 1.361 4.565 1.009 7.054-0.348 2.484-1.376 4.999-3.084 7.545zM228.597 207.41l21.7 14.559 1.01-1.504c1.128-1.681 1.705-3.256 1.731-4.725 0.025-1.478-0.592-2.983-1.85-4.514-1.254-1.537-3.26-3.23-6.015-5.079v0c-2.75-1.845-5.074-3.057-6.972-3.635-1.894-0.584-3.513-0.595-4.857-0.033-1.334 0.559-2.549 1.655-3.643 3.285v0zM264.003 199.848l-2.099 5.421-0.39-0.151 0.028-1.121c-0.009-0.601-0.109-1.106-0.299-1.514-0.191-0.408-0.527-0.809-1.008-1.202v0l-20.097-17.104 1.295-3.341 26.482 1.086c0.657 0.013 1.189-0.056 1.595-0.204 0.404-0.142 0.818-0.448 1.241-0.918v0l0.341-0.412 0.39 0.151-3.869 9.989-0.39-0.151 0.026-0.674c0.007-0.624-0.158-1.072-0.493-1.344-0.332-0.264-0.792-0.417-1.381-0.46v0l-6.378-0.346-3.38 8.726 4.812 4.031c0.51 0.411 0.948 0.648 1.315 0.712 0.364 0.07 0.758-0.13 1.182-0.599v0l0.688-0.726zM244.354 186.718l10.591 8.981 3.182-8.216z" fill="#ffffff" data-fill-palette-color="primary"></path><path d="M35.689 100.687L34.583 103.6 7.888 103.124C7.292 103.104 6.785 103.188 6.365 103.376 5.952 103.567 5.566 103.893 5.207 104.353V104.353L4.53 105.182 4.139 105.034 8.449 93.679 8.84 93.827 8.727 95.19C8.66 95.853 8.809 96.293 9.174 96.51 9.548 96.723 10.058 96.846 10.706 96.878V96.878L30.219 97.62 15.11 85.165C14.582 84.724 14.12 84.435 13.724 84.299 13.323 84.16 12.93 84.363 12.546 84.906V84.906L11.875 85.833 11.484 85.684 13.579 80.165 13.97 80.314 13.884 81.495C13.826 82.041 13.921 82.481 14.17 82.817 14.418 83.153 14.771 83.514 15.228 83.901V83.901ZM42.03 86.638L38.869 91.518 38.518 91.29 38.775 90.199C38.888 89.608 38.893 89.094 38.79 88.655 38.687 88.217 38.439 87.756 38.048 87.273V87.273L21.858 66.434 23.806 63.426 49.511 69.885C50.152 70.031 50.686 70.073 51.114 70.01 51.539 69.953 52.006 69.738 52.517 69.365V69.365L52.935 69.031 53.286 69.258 47.463 78.249 47.112 78.021 47.274 77.368C47.408 76.758 47.338 76.286 47.065 75.951 46.794 75.625 46.375 75.381 45.807 75.219V75.219L39.633 73.581 34.547 81.436 38.436 86.363C38.852 86.869 39.233 87.19 39.579 87.328 39.921 87.47 40.348 87.355 40.858 86.982V86.982L41.679 86.411ZM25.467 69.779L34.007 80.73 38.796 73.336ZM63.702 60.357V60.357C61.662 62.371 59.445 63.72 57.052 64.404 54.663 65.083 52.261 65.068 49.844 64.357 47.422 63.643 45.155 62.215 43.043 60.076V60.076C40.992 57.998 39.624 55.753 38.94 53.341 38.261 50.934 38.307 48.491 39.079 46.014 39.851 43.536 41.396 41.153 43.715 38.863V38.863C44.778 37.814 45.884 36.96 47.033 36.301 48.173 35.642 49.382 35.139 50.661 34.79V34.79L54.929 38.872 54.631 39.166 49.861 37.706C49.107 37.462 48.514 37.339 48.082 37.336 47.641 37.333 47.192 37.44 46.736 37.658V37.658C46.316 37.876 45.947 38.092 45.626 38.305 45.306 38.519 44.926 38.843 44.487 39.277V39.277C43.244 40.503 42.475 41.915 42.178 43.514 41.882 45.112 42.185 46.888 43.087 48.841 43.99 50.795 45.595 52.94 47.903 55.278V55.278C50.192 57.597 52.305 59.246 54.242 60.226 56.169 61.205 57.915 61.584 59.479 61.365 61.038 61.149 62.408 60.459 63.589 59.293V59.293C63.769 59.116 63.927 58.927 64.064 58.726 64.206 58.53 64.337 58.331 64.455 58.13V58.13C64.782 57.696 64.876 57.291 64.738 56.914 64.604 56.533 64.358 56.161 63.999 55.797V55.797L58.138 49.86C57.369 49.081 56.494 48.998 55.514 49.611V49.611L53.776 50.614 53.475 50.309 61.941 41.952 62.242 42.256 61.936 42.796C61.408 43.783 61.52 44.657 62.271 45.417V45.417L68.698 51.928C68.232 53.534 67.615 55.016 66.846 56.372 66.068 57.728 65.02 59.056 63.702 60.357ZM80.346 45.538L71.519 51.832 71.276 51.491 71.769 50.724C72.112 50.235 72.259 49.8 72.208 49.42 72.163 49.037 71.979 48.618 71.655 48.164V48.164L58.877 30.243C58.549 29.783 58.219 29.469 57.886 29.299 57.554 29.12 57.09 29.12 56.494 29.301V29.301L55.608 29.517 55.366 29.176 64.193 22.883 64.435 23.223 63.943 23.99C63.599 24.479 63.453 24.914 63.503 25.294 63.545 25.672 63.729 26.09 64.057 26.55V26.55L76.835 44.471C77.158 44.925 77.49 45.231 77.83 45.388 78.165 45.548 78.628 45.557 79.218 45.413V45.413L80.103 45.197ZM85.25 43.219L80.03 45.779 79.846 45.404 80.627 44.6C81.028 44.152 81.297 43.713 81.434 43.284 81.571 42.854 81.595 42.332 81.508 41.717V41.717L78.336 15.519 81.554 13.94 100.28 32.697C100.754 33.151 101.191 33.462 101.591 33.628 101.984 33.797 102.496 33.853 103.125 33.796V33.796L103.656 33.724 103.84 34.099 94.223 38.817 94.039 38.442 94.514 37.964C94.942 37.511 95.125 37.07 95.063 36.642 94.998 36.223 94.764 35.798 94.36 35.368V35.368L89.907 30.788 81.506 34.91 82.309 41.135C82.405 41.783 82.566 42.255 82.793 42.55 83.013 42.849 83.438 42.969 84.068 42.912V42.912L85.066 42.844ZM79.712 20.244L81.406 34.027 89.316 30.147ZM129.916 28.701L116.83 30.965 116.759 30.553 118.383 29.838C119.478 29.392 119.928 28.604 119.732 27.473V27.473L115.635 3.793 112.104 4.404C111.077 4.581 110.388 4.977 110.036 5.59 109.692 6.209 109.352 7.032 109.018 8.059V8.059L108.02 11.223 107.608 11.294 106.643 4.49 130.607 0.344 131.945 7.083 131.533 7.155 129.539 4.509C128.906 3.649 128.32 2.986 127.781 2.52 127.243 2.061 126.461 1.92 125.435 2.097V2.097L121.903 2.708 126 26.388C126.196 27.519 126.884 28.111 128.065 28.163V28.163L129.845 28.289ZM148.25 29.32V29.32C146.533 29.24 144.896 28.855 143.341 28.164 141.785 27.474 140.409 26.489 139.213 25.211 138.024 23.926 137.107 22.355 136.463 20.498 135.819 18.641 135.554 16.489 135.669 14.043V14.043C135.781 11.63 136.245 9.529 137.059 7.74 137.873 5.951 138.939 4.472 140.256 3.305 141.579 2.144 143.048 1.286 144.662 0.73 146.282 0.174 147.934-0.064 149.618 0.015V0.015C151.329 0.095 152.962 0.473 154.518 1.15 156.081 1.828 157.457 2.806 158.647 4.084 159.843 5.362 160.762 6.94 161.405 8.817 162.049 10.687 162.314 12.842 162.2 15.282V15.282C162.088 17.669 161.625 19.766 160.81 21.575 159.995 23.378 158.932 24.859 157.622 26.021 156.319 27.189 154.857 28.051 153.236 28.606 151.622 29.162 149.96 29.4 148.25 29.32ZM148.291 28.435V28.435C149.836 28.507 151.105 28.151 152.098 27.367 153.091 26.583 153.85 25.2 154.375 23.218 154.906 21.23 155.254 18.479 155.418 14.965V14.965C155.583 11.432 155.493 8.65 155.15 6.621 154.812 4.592 154.186 3.141 153.27 2.268 152.354 1.395 151.124 0.922 149.579 0.85V0.85C148.061 0.779 146.805 1.136 145.812 1.92 144.819 2.704 144.056 4.09 143.525 6.078 143 8.067 142.655 10.828 142.49 14.362V14.362C142.326 17.875 142.413 20.646 142.75 22.675 143.094 24.698 143.724 26.146 144.64 27.019 145.556 27.892 146.773 28.364 148.291 28.435ZM173.689 33.577V33.577C171.629 33.011 169.905 32.145 168.519 30.979 167.132 29.813 166.219 28.316 165.779 26.488 165.332 24.658 165.467 22.441 166.183 19.836V19.836L170.039 5.813C170.32 4.789 169.978 3.968 169.012 3.352V3.352L168.188 2.857 168.299 2.454 179.558 5.549 179.447 5.953 178.177 5.954C177.105 5.921 176.416 6.461 176.11 7.575V7.575L171.985 22.578C171.294 25.093 171.31 27.1 172.033 28.6 172.764 30.095 174.119 31.114 176.096 31.658V31.658C178.157 32.225 179.964 32.036 181.517 31.094 183.076 30.153 184.176 28.518 184.817 26.188V26.188L188.918 11.272C189.068 10.728 189.11 10.223 189.045 9.758 188.982 9.287 188.7 8.91 188.2 8.628V8.628L187.251 8.098 187.362 7.695 193.054 9.26 192.943 9.663 191.76 9.648C191.218 9.616 190.812 9.779 190.541 10.138 190.262 10.502 190.048 10.956 189.898 11.5V11.5L185.807 26.378C185.264 28.356 184.395 29.975 183.202 31.237 182.016 32.494 180.606 33.328 178.972 33.739 177.344 34.152 175.584 34.098 173.689 33.577ZM194.721 41.128L185.172 36.102 185.366 35.732 186.29 35.881C186.881 35.967 187.325 35.908 187.62 35.703 187.924 35.496 188.214 35.131 188.489 34.608V34.608L198.758 15.095C199.021 14.596 199.156 14.168 199.164 13.812 199.18 13.453 199 13.062 198.622 12.639V12.639L197.935 11.85 198.13 11.48 208.798 17.094C211.735 18.639 213.697 20.377 214.684 22.306 215.668 24.241 215.643 26.19 214.611 28.151V28.151C214.033 29.25 213.045 30.129 211.648 30.788 210.251 31.448 208.514 31.614 206.437 31.286V31.286L206.197 44.31C206.198 44.85 206.274 45.325 206.426 45.735 206.575 46.151 206.831 46.582 207.196 47.029V47.029L207.583 47.469 207.407 47.804 200.729 44.29 201.391 29.631 198.853 28.296 194.004 37.511C193.757 37.98 193.63 38.405 193.626 38.785 193.615 39.162 193.807 39.552 194.202 39.955V39.955L194.916 40.758ZM205.233 16.174L199.247 27.547 201.045 28.493C202.836 29.435 204.38 29.637 205.676 29.097 206.979 28.56 208.128 27.346 209.123 25.455V25.455C210.131 23.54 210.507 21.92 210.253 20.593 209.995 19.273 208.983 18.147 207.215 17.217V17.217ZM222.706 60.461L206.754 47.606 207.016 47.28 207.919 47.573C208.52 47.767 208.982 47.786 209.305 47.629 209.633 47.475 209.972 47.182 210.322 46.748V46.748L224.133 29.609C224.487 29.17 224.701 28.767 224.774 28.4 224.858 28.033 224.742 27.594 224.428 27.085V27.085L223.95 26.266 224.213 25.94 232.584 32.686 232.322 33.012 231.52 32.801C230.977 32.619 230.52 32.604 230.149 32.757 229.773 32.906 229.411 33.198 229.061 33.632V33.632L213.982 52.344 219.036 56.416C219.847 57.07 220.603 57.355 221.301 57.27 222 57.186 222.825 56.913 223.776 56.452V56.452L227.279 54.723 227.605 54.985ZM230.602 69.05L223.207 61.123 223.512 60.838 224.337 61.226C224.867 61.502 225.318 61.591 225.687 61.491 226.062 61.396 226.452 61.158 226.86 60.778V60.778L242.953 45.762C243.366 45.377 243.635 45.008 243.759 44.656 243.894 44.304 243.832 43.844 243.575 43.276V43.276L243.245 42.426 243.551 42.141 250.947 50.068 250.641 50.353 249.816 49.965C249.286 49.689 248.836 49.6 248.466 49.7 248.096 49.791 247.706 50.028 247.293 50.413V50.413L231.2 65.429C230.792 65.809 230.533 66.178 230.422 66.536 230.306 66.889 230.358 67.348 230.578 67.915V67.915L230.908 68.764ZM236.449 77.899L230.669 69.285 231.017 69.052 231.791 69.599C232.597 70.145 233.444 70.121 234.331 69.525V69.525L252.609 57.262C253.54 56.637 253.884 55.863 253.64 54.94V54.94L253.428 54.015 253.775 53.782 259.976 63.024C261.636 65.499 262.605 67.938 262.883 70.341 263.161 72.744 262.765 75.007 261.696 77.131 260.633 79.251 258.9 81.117 256.497 82.729V82.729C254.045 84.375 251.603 85.25 249.172 85.355 246.735 85.463 244.432 84.883 242.261 83.614 240.095 82.35 238.157 80.445 236.449 77.899ZM257.842 61.363L236.142 75.923 237.152 77.427C238.279 79.108 239.518 80.24 240.867 80.821 242.225 81.404 243.852 81.404 245.746 80.82 247.644 80.242 249.97 79.029 252.726 77.18V77.18C255.476 75.335 257.478 73.643 258.733 72.106 259.991 70.575 260.615 69.081 260.605 67.625 260.594 66.178 260.041 64.639 258.946 63.008V63.008ZM246.373 95.013L244.273 89.592 244.663 89.441 245.397 90.288C245.808 90.727 246.222 91.032 246.638 91.206 247.054 91.379 247.572 91.449 248.192 91.415V91.415L274.567 90.52 275.861 93.862 255.556 110.896C255.062 111.33 254.715 111.738 254.515 112.122 254.313 112.499 254.213 113.004 254.216 113.636V113.636L254.241 114.171 253.851 114.322 249.982 104.333 250.372 104.182 250.807 104.697C251.222 105.163 251.645 105.383 252.077 105.358 252.5 105.33 252.943 105.133 253.407 104.768V104.768L258.354 100.728 254.974 92.002 248.703 92.264C248.049 92.303 247.565 92.423 247.251 92.623 246.935 92.817 246.778 93.23 246.781 93.862V93.862L246.762 94.862ZM269.74 91.482L255.862 91.978 259.044 100.194Z" fill="#ffffff" data-fill-palette-color="primary"></path><path d="M4.433 143.768c0-6.03 4.888-10.918 10.917-10.917 6.03 0 10.918 4.888 10.918 10.917 0 6.03-4.888 10.918-10.918 10.918-6.03 0-10.918-4.888-10.917-10.918zM255.305 143.768c0-6.03 4.888-10.918 10.917-10.917 6.03 0 10.918 4.888 10.918 10.917 0 6.03-4.888 10.918-10.918 10.918-6.03 0-10.918-4.888-10.917-10.918z" fill="#ffffff" data-fill-palette-color="primary"></path></svg></g></svg></g></svg></g><g></g></svg></g><defs></defs></svg><rect width="280" height="280" fill="none" stroke="none" visibility="hidden"></rect></g></svg></g></svg>